<?xml version="1.0" encoding="UTF-8"?>
<svg width="26px" height="26px" viewBox="0 0 26 26" version="1.1" xmlns="http://www.w3.org/2000/svg" xmlns:xlink="http://www.w3.org/1999/xlink">
    <title>icon/tab/book_green</title>
    <defs>
        <filter color-interpolation-filters="auto" id="filter-1">
            <feColorMatrix in="SourceGraphic" type="matrix" values="0 0 0 0 0.180392 0 0 0 0 0.349020 0 0 0 0 0.345098 0 0 0 1.000000 0"></feColorMatrix>
        </filter>
    </defs>
    <g id="icon/tab/book_green" stroke="none" stroke-width="1" fill="none" fill-rule="evenodd">
        <g filter="url(#filter-1)" id="open-book">
            <g transform="translate(3.000000, 5.000000)">
                <path d="M19.3288238,2.16355703 L17.9268757,2.16349043 L17.9268757,0.728080524 C17.9268757,0.399450184 17.6837788,0.120240945 17.3551604,0.0716191066 C17.2977869,0.0630936336 15.9320002,-0.133125455 14.2873593,0.162868309 C12.4538975,0.492830755 10.9916802,1.30654718 9.99996633,2.53667968 C9.00818516,1.30654718 7.54596786,0.492830755 5.71257336,0.162868309 C4.06786509,-0.133058849 2.70207844,0.0630936336 2.64477224,0.0716191066 C2.31615382,0.12030755 2.07305699,0.399516789 2.07305699,0.728080524 L2.07305699,2.16349043 L0.671108851,2.16349043 C0.300537709,2.16349043 0,2.46074969 0,2.82734503 L0,15.3361454 C0,15.5510806 0.105184831,15.7526947 0.282355952,15.8772465 C0.459527072,16.0017983 0.686664355,16.0337689 0.891848849,15.9630341 C0.94221905,15.9457833 5.97136037,14.2481485 9.72144875,15.9400553 C9.89841785,16.019915 10.1015821,16.019915 10.2785513,15.9400553 C14.0181346,14.2529441 19.0580503,15.9459165 19.1081512,15.9630341 C19.1800701,15.9878112 19.254548,16 19.3287565,16 C19.4663318,16 19.6024929,15.9581719 19.717644,15.8773131 C19.8948152,15.7527613 20,15.5511472 20,15.336212 L20,2.82741163 C20,2.4608163 19.6994623,2.16355703 19.3288238,2.16355703 Z M1.34228504,14.4479643 L1.34228504,3.49113302 L2.07305699,3.49113302 L2.07305699,12.3313824 C2.07305699,12.5242712 2.15837657,12.7074357 2.30591816,12.8335195 C2.45345975,12.9596032 2.64968805,13.0161511 2.84254935,12.987977 C2.87958626,12.9826486 5.795132,12.586747 7.92522584,14.0322809 C5.30132895,13.58849 2.67520985,14.1018168 1.34228504,14.4479643 Z M9.32885748,13.4336328 C8.39067882,12.5952058 7.16866273,12.0282619 5.71257336,11.7662368 C5.01183498,11.6400865 4.36173616,11.6033204 3.84187259,11.6033204 C3.68752967,11.6033204 3.54463453,11.606584 3.41540938,11.6117126 L3.41540938,1.33765184 L3.41534204,1.33765184 C4.70523668,1.2801049 7.84307124,1.41651246 9.32885748,3.90774891 L9.32885748,13.4336328 Z M10.6710752,3.90781551 C12.1515416,1.42723591 15.2942919,1.28463405 16.5845906,1.33931697 L16.5845906,11.6117126 C16.0200807,11.5892 15.1960431,11.6026543 14.2873593,11.7662368 C12.8312699,12.0282619 11.6092538,12.5951392 10.6710752,13.4336328 L10.6710752,3.90781551 Z M12.0724846,14.0326805 C14.2028478,12.5862807 17.1199424,12.982582 17.1563059,12.9879104 C17.3496386,13.0166173 17.5457322,12.9604025 17.6937451,12.8343853 C17.8417581,12.708235 17.9268757,12.5246709 17.9268757,12.3313824 L17.9268757,3.49119963 L18.6576476,3.49119963 L18.6576476,14.4479643 C17.3243188,14.1016836 14.6971222,13.588157 12.0724846,14.0326805 Z" id="Shape" fill="#888888" fill-rule="nonzero"></path>
            </g>
        </g>
    </g>
</svg>