<?xml version="1.0" encoding="UTF-8"?>
<svg width="26px" height="26px" viewBox="0 0 26 26" version="1.1" xmlns="http://www.w3.org/2000/svg" xmlns:xlink="http://www.w3.org/1999/xlink">
    <title>icon/tab/e_graph_brown</title>
    <defs>
        <filter color-interpolation-filters="auto" id="filter-1">
            <feColorMatrix in="SourceGraphic" type="matrix" values="0 0 0 0 0.572549 0 0 0 0 0.309804 0 0 0 0 0.129412 0 0 0 1.000000 0"></feColorMatrix>
        </filter>
    </defs>
    <g id="icon/tab/e_graph_brown" stroke="none" stroke-width="1" fill="none" fill-rule="evenodd">
        <g filter="url(#filter-1)" id="line-chart">
            <g transform="translate(5.000000, 6.000000)">
                <path d="M0.6060625,0 C0.9408125,0 1.212125,0.261138026 1.212125,0.583334587 L1.212125,0.583334587 L1.212125,12.8333308 L15.37375,12.8333308 C15.7085,12.8333308 15.9798125,13.0944689 15.9798125,13.4166654 C15.9798125,13.738862 15.7085,14 15.37375,14 L15.37375,14 L0.6060625,14 C0.2713125,14 0,13.738862 0,13.4166654 L0,13.4166654 L0,0.583334587 C0,0.261138026 0.2713125,0 0.6060625,0 Z M15.3939375,1.53611842 C15.7286875,1.53611842 16,1.79725645 16,2.11945301 L16,2.11945301 L16,6.49443233 C16,6.81662889 15.7287188,7.07797746 15.3939688,7.07797746 C15.0592188,7.07797746 14.7879063,6.81662889 14.7879063,6.49464288 L14.7879063,6.49464288 L14.787,3.543 L10.7913125,7.37448733 C10.5805069,7.57621109 10.2549113,7.59845848 10.0190138,7.44099714 L9.93515625,7.37352483 L8.6060625,6.09448389 L3.64059375,10.8735324 C3.5224375,10.9874682 3.3670625,11.0444361 3.212125,11.0444361 C3.05696875,11.0444361 2.9018125,10.9874682 2.783625,10.8735324 C2.54684375,10.6458412 2.54684375,10.2763919 2.783625,10.0487007 L2.783625,10.0487007 L8.1775625,4.85701088 C8.41434375,4.62910915 8.79775,4.6293197 9.03453125,4.85701088 L9.03453125,4.85701088 L10.3644375,6.1370444 L13.947,2.702 L10.8485,2.70278759 C10.547225,2.70278759 10.2973344,2.49126579 10.250369,2.21408014 L10.2424375,2.11945301 C10.2424375,1.79725645 10.51375,1.53611842 10.8485,1.53611842 L10.8485,1.53611842 Z" id="Combined-Shape" stroke="#979797" stroke-width="0.3" fill="#979797" fill-rule="nonzero"></path>
            </g>
        </g>
    </g>
</svg>