<?xml version="1.0" encoding="UTF-8"?>
<svg width="26px" height="26px" viewBox="0 0 26 26" version="1.1" xmlns="http://www.w3.org/2000/svg" xmlns:xlink="http://www.w3.org/1999/xlink">
    <title>icon/tab/emuseum_green</title>
    <defs>
        <filter color-interpolation-filters="auto" id="filter-1">
            <feColorMatrix in="SourceGraphic" type="matrix" values="0 0 0 0 0.180392 0 0 0 0 0.349020 0 0 0 0 0.345098 0 0 0 1.000000 0"></feColorMatrix>
        </filter>
    </defs>
    <g id="icon/tab/emuseum_green" stroke="none" stroke-width="1" fill="none" fill-rule="evenodd">
        <g filter="url(#filter-1)" id="homepage">
            <g transform="translate(4.000000, 4.000000)">
                <path d="M16.4179688,0 C17.2902832,0 18,0.709716797 18,1.58203125 L18,1.58203125 L18,16.4179688 C18,17.2902832 17.2902832,18 16.4179688,18 L16.4179688,18 L1.58203125,18 C0.709716797,18 0,17.2902832 0,16.4179688 L0,16.4179688 L0,1.58203125 C0,0.709716797 0.709716797,0 1.58203125,0 L1.58203125,0 Z M16.9453125,5.2734375 L1.0546875,5.2734375 L1.0546875,16.4179688 C1.0546875,16.7086944 1.29130555,16.9453125 1.58203125,16.9453125 L1.58203125,16.9453125 L16.4179688,16.9453125 C16.7086944,16.9453125 16.9453125,16.7086944 16.9453125,16.4179688 L16.9453125,16.4179688 L16.9453125,5.2734375 Z M16.4179688,1.0546875 L1.58203125,1.0546875 C1.29130555,1.0546875 1.0546875,1.29130555 1.0546875,1.58203125 L1.0546875,1.58203125 L1.0546875,4.21875 L16.9453125,4.21875 L16.9453125,1.58203125 C16.9453125,1.29130555 16.7086944,1.0546875 16.4179688,1.0546875 L16.4179688,1.0546875 Z M15.3632812,2.109375 C15.6545563,2.109375 15.890625,2.34544373 15.890625,2.63671875 C15.890625,2.92799377 15.6545563,3.1640625 15.3632812,3.1640625 C15.0720062,3.1640625 14.8359375,2.92799377 14.8359375,2.63671875 C14.8359375,2.34544373 15.0720062,2.109375 15.3632812,2.109375 Z M13.2539062,2.109375 C13.5451813,2.109375 13.78125,2.34544373 13.78125,2.63671875 C13.78125,2.92799377 13.5451813,3.1640625 13.2539062,3.1640625 C12.9626312,3.1640625 12.7265625,2.92799377 12.7265625,2.63671875 C12.7265625,2.34544373 12.9626312,2.109375 13.2539062,2.109375 Z M11.1445312,2.109375 C11.4358063,2.109375 11.671875,2.34544373 11.671875,2.63671875 C11.671875,2.92799377 11.4358063,3.1640625 11.1445312,3.1640625 C10.8532562,3.1640625 10.6171875,2.92799377 10.6171875,2.63671875 C10.6171875,2.34544373 10.8532562,2.109375 11.1445312,2.109375 Z" id="Combined-Shape" stroke="#888888" stroke-width="0.3" fill="#888888" fill-rule="nonzero"></path>
                <path d="M9.41555298,14.4441244 C10.1787021,14.4441244 11.0671443,14.1821479 11.7391711,13.7037559 L11.0671443,12.4849954 C10.6001426,12.7583623 10.1673118,12.8950457 9.7003101,12.8950457 C8.8802096,12.8950457 8.26513422,12.5305566 8.08288966,11.6421144 L11.8872448,11.6421144 C11.9328059,11.4940407 11.978367,11.1295515 11.978367,10.7764527 C12.1514952,9.09814561 11.0676711,7.79198483 9.19913757,7.64412441 C7.62727827,7.64412441 6.12376068,8.94261687 6.12376068,11.0498196 C6.12376068,13.1911931 7.55893656,14.4441244 9.41555298,14.4441244 Z M10.2584341,10.3208413 L8.04871881,10.3208413 C8.18540222,9.54630197 8.67518447,9.19320314 9.23330842,9.19320314 C9.97367693,9.19320314 10.2584341,9.6715951 10.2584341,10.3208413 Z" id="e" fill="#888888" fill-rule="nonzero" transform="translate(9.060085, 11.044124) rotate(-15.000000) translate(-9.060085, -11.044124) "></path>
            </g>
        </g>
    </g>
</svg>