<?xml version="1.0" encoding="UTF-8"?>
<svg width="26px" height="26px" viewBox="0 0 26 26" version="1.1" xmlns="http://www.w3.org/2000/svg" xmlns:xlink="http://www.w3.org/1999/xlink">
    <title>icon/tab/erunning_brown</title>
    <defs>
        <filter color-interpolation-filters="auto" id="filter-1">
            <feColorMatrix in="SourceGraphic" type="matrix" values="0 0 0 0 0.572549 0 0 0 0 0.309804 0 0 0 0 0.129412 0 0 0 1.000000 0"></feColorMatrix>
        </filter>
    </defs>
    <g id="icon/tab/erunning_brown" stroke="none" stroke-width="1" fill="none" fill-rule="evenodd">
        <g filter="url(#filter-1)" id="data-storage">
            <g transform="translate(3.000000, 3.000000)">
                <path d="M18.2421875,16.484375 C17.4783325,16.484375 16.8270874,16.9743347 16.585083,17.65625 L11.6571045,17.65625 C11.4802551,17.1575928 11.0845947,16.7619324 10.5859375,16.585083 L10.5859375,15.2648926 C11.9869995,15.2244568 13.2926941,15.0395203 14.3115234,14.7338867 C15.2566528,14.4503784 16.4453125,13.915863 16.4453125,12.9296875 L16.4453125,2.34375 C16.4453125,1.35757445 15.2566528,0.823059063 14.3115234,0.539550781 C13.1518555,0.191650391 11.6204834,0 10,0 C8.3795166,0 6.84814453,0.191650391 5.68847656,0.539550781 C4.74334719,0.823059063 3.5546875,1.35757445 3.5546875,2.34375 L3.5546875,12.9296875 C3.5546875,13.230896 3.67736816,13.6772156 4.26208496,14.0917969 C4.60922242,14.3380737 5.08911133,14.5541382 5.68847656,14.7338867 C6.70745852,15.0395203 8.01300047,15.2244568 9.4140625,15.2648926 L9.4140625,16.585083 C8.91540527,16.7619324 8.51974488,17.1575928 8.34289551,17.65625 L3.41491699,17.65625 C3.17291258,16.9743347 2.5216675,16.484375 1.7578125,16.484375 C0.788574219,16.484375 0,17.2729492 0,18.2421875 C0,19.2114258 0.788574219,20 1.7578125,20 C2.5216675,20 3.17291258,19.5100403 3.41491699,18.828125 L8.34289551,18.828125 C8.58489992,19.5100403 9.236145,20 10,20 C10.763855,20 11.4151001,19.5100403 11.6571045,18.828125 L16.585083,18.828125 C16.8270874,19.5100403 17.4783325,20 18.2421875,20 C19.2114258,20 20,19.2114258 20,18.2421875 C20,17.2729492 19.2114258,16.484375 18.2421875,16.484375 Z M4.7265625,7.29461672 C5.00061035,7.43026734 5.32211305,7.55371094 5.68847656,7.66357422 C6.84814453,8.01147461 8.3795166,8.203125 10,8.203125 C11.6204834,8.203125 13.1518555,8.01147461 14.3115234,7.66357422 C14.677887,7.55371094 14.9993896,7.43011477 15.2734375,7.2944641 L15.2734375,9.36874391 C15.2470398,9.44915773 14.9345398,9.7920227 13.8218689,10.1008606 C12.7857971,10.3884888 11.4285278,10.546875 10,10.546875 C8.57147219,10.546875 7.21420289,10.3884888 6.17813109,10.1008606 C5.0654602,9.7920227 4.7529602,9.44915773 4.7265625,9.36874391 L4.7265625,7.29461672 Z M4.7265625,3.77899172 C5.00061035,3.91464234 5.32211305,4.03808594 5.68847656,4.14794922 C6.84814453,4.49584961 8.3795166,4.6875 10,4.6875 C11.6204834,4.6875 13.1518555,4.49584961 14.3115234,4.14794922 C14.677887,4.03808594 14.9993896,3.91448977 15.2734375,3.7788391 L15.2734375,5.85311891 C15.2470398,5.93353273 14.9345398,6.2763977 13.8218689,6.58523559 C12.7857971,6.87286375 11.4285278,7.03125 10,7.03125 C8.57147219,7.03125 7.21420289,6.87286375 6.17813109,6.58523559 C5.0654602,6.2763977 4.7529602,5.93353273 4.7265625,5.85311891 L4.7265625,3.77899172 Z M6.17813109,1.61788941 C7.21420289,1.33026125 8.57147219,1.171875 10,1.171875 C11.4285278,1.171875 12.7857971,1.33026125 13.8218689,1.61788941 C14.9069214,1.91909789 15.2311707,2.25280762 15.2711487,2.34375 C15.2311707,2.43469238 14.9067688,2.76840211 13.8218689,3.06961059 C12.7857971,3.35723875 11.4285278,3.515625 10,3.515625 C8.57147219,3.515625 7.21420289,3.35723875 6.17813109,3.06961059 C5.09307859,2.76840211 4.76882934,2.43469238 4.72885133,2.34375 C4.76882934,2.25280762 5.09307859,1.91909789 6.17813109,1.61788941 Z M4.7265625,12.9234314 L4.7265625,10.8102417 C5.00061035,10.9458923 5.32211305,11.0693359 5.68847656,11.1791992 C6.84814453,11.5270996 8.3795166,11.71875 10,11.71875 C11.6204834,11.71875 13.1518555,11.5270996 14.3115234,11.1791992 C14.677887,11.0693359 14.9993896,10.9457398 15.2734375,10.8100891 L15.2734375,12.9234314 C15.2470398,13.0038452 14.9345398,13.3467102 13.8218689,13.6555481 C12.7857971,13.9431762 11.4285278,14.1015625 10,14.1015625 C8.57147219,14.1015625 7.21420289,13.9431762 6.17813109,13.6555481 C5.0654602,13.3467102 4.7529602,13.0038452 4.7265625,12.9234314 L4.7265625,12.9234314 Z M1.7578125,18.828125 C1.43478395,18.828125 1.171875,18.5652161 1.171875,18.2421875 C1.171875,17.9191589 1.43478395,17.65625 1.7578125,17.65625 C2.08084105,17.65625 2.34375,17.9191589 2.34375,18.2421875 C2.34375,18.5652161 2.08084105,18.828125 1.7578125,18.828125 Z M10,18.828125 C9.67697145,18.828125 9.4140625,18.5652161 9.4140625,18.2421875 C9.4140625,17.9191589 9.67697145,17.65625 10,17.65625 C10.3230286,17.65625 10.5859375,17.9191589 10.5859375,18.2421875 C10.5859375,18.5652161 10.3230286,18.828125 10,18.828125 Z M18.2421875,18.828125 C17.9191589,18.828125 17.65625,18.5652161 17.65625,18.2421875 C17.65625,17.9191589 17.9191589,17.65625 18.2421875,17.65625 C18.5652161,17.65625 18.828125,17.9191589 18.828125,18.2421875 C18.828125,18.5652161 18.5652161,18.828125 18.2421875,18.828125 Z" id="Shape" fill="#888888" fill-rule="nonzero"></path>
            </g>
        </g>
    </g>
</svg>