<?xml version="1.0" encoding="UTF-8"?>
<svg width="26px" height="26px" viewBox="0 0 26 26" version="1.1" xmlns="http://www.w3.org/2000/svg" xmlns:xlink="http://www.w3.org/1999/xlink">
    <title>icon/tab/gpki_green</title>
    <defs>
        <filter color-interpolation-filters="auto" id="filter-1">
            <feColorMatrix in="SourceGraphic" type="matrix" values="0 0 0 0 0.180392 0 0 0 0 0.349020 0 0 0 0 0.345098 0 0 0 1.000000 0"></feColorMatrix>
        </filter>
    </defs>
    <g id="icon/tab/gpki_green" stroke="none" stroke-width="1" fill="none" fill-rule="evenodd">
        <g filter="url(#filter-1)" id="shield">
            <g transform="translate(6.000000, 4.000000)">
                <path d="M13.3103448,2.87817994 C10.05132,2.87817994 7.555361,0.264603674 7.51333514,0.220116709 C7.24043641,-0.0727449283 6.76198814,-0.0739122162 6.48706897,0.219857326 C6.46214979,0.246316041 3.95999462,2.87817994 0.689655172,2.87817994 C0.308728448,2.87817994 0,3.17545138 0,3.54224179 C0,9.37872294 1.22252155,14.4283167 6.7040679,16.9357987 C6.89129848,17.0214004 7.10870152,17.0214004 7.2959321,16.9357987 C12.7898707,14.4226099 14,9.3556364 14,3.54224179 C14,3.17545138 13.6912716,2.87817994 13.3103448,2.87817994 Z M7,15.5956129 C2.50781248,13.382549 1.45231683,9.07263193 1.383486,4.17504606 C4.02680497,3.9373067 6.08512931,2.40360916 7,1.59687777 C7.91487069,2.40360916 9.97332972,3.9373067 12.616514,4.17504606 C12.5476832,9.07366952 11.4916487,13.3828084 7,15.5956129 Z M6.29175648,9.14682009 L9.09859914,6.4441402 C9.367861,6.18487076 9.80455279,6.18474104 10.0738147,6.4441402 C10.3432112,6.70353936 10.3432112,7.12389573 10.0739493,7.38329489 L6.77949893,10.5554872 C6.51023707,10.8147567 6.07341055,10.814627 5.80414869,10.5554872 L3.92618534,8.74721565 C3.65678879,8.48781649 3.65678879,8.06733047 3.92618534,7.808061 C4.19544721,7.54866183 4.632139,7.54866183 4.90153555,7.808061 L6.29175648,9.14682009 Z" id="Shape" stroke="#888888" stroke-width="0.2" fill="#888888" fill-rule="nonzero"></path>
            </g>
        </g>
    </g>
</svg>