<?xml version="1.0" encoding="UTF-8"?>
<svg width="26px" height="26px" viewBox="0 0 26 26" version="1.1" xmlns="http://www.w3.org/2000/svg" xmlns:xlink="http://www.w3.org/1999/xlink">
    <title>icon/tab/menual_02_brown</title>
    <defs>
        <filter color-interpolation-filters="auto" id="filter-1">
            <feColorMatrix in="SourceGraphic" type="matrix" values="0 0 0 0 0.572549 0 0 0 0 0.309804 0 0 0 0 0.129412 0 0 0 1.000000 0"></feColorMatrix>
        </filter>
    </defs>
    <g id="icon/tab/menual_02_brown" stroke="none" stroke-width="1" fill="none" fill-rule="evenodd">
        <g filter="url(#filter-1)" id="book-(1)">
            <g transform="translate(5.000000, 3.000000)">
                <path d="M14.3039443,5.08005031 C14.6883759,5.08005031 15,4.74779114 15,4.3379034 L15,0.74318592 C15,0.333298179 14.6883759,0.00103900568 14.3039443,0.00103900568 L3.49980278,0.00103900568 C3.49325986,0.000853468951 3.48685615,0 3.48027842,0 C3.4737007,0 3.46729698,0.000853468951 3.46075406,0.00103900568 L2.08816705,0.00103900568 C0.93675174,0.00103900568 0,0.999820322 0,2.22747975 L0,16.7735593 C0,18.0012187 0.93675174,19 2.08816705,19 L5.72649401,19 C6.11092557,19 6.4225497,18.6677408 6.4225497,18.2578531 C6.4225497,17.8479653 6.11092557,17.5157062 5.72649401,17.5157062 L2.08816705,17.5157062 C1.70436195,17.5157062 1.39211137,17.1827791 1.39211137,16.7735593 C1.39211137,16.3643395 1.70436195,16.0314123 2.08816705,16.0314123 L6.74044403,16.0314123 C7.16496595,15.8855288 7.37722691,15.6381465 7.37722691,15.2892654 C7.37722691,14.9403844 7.16496595,14.6930021 6.74044403,14.5471185 L4.17633411,14.5471185 L4.17633411,1.48533283 L13.6078886,1.48533283 L13.6078886,4.3379034 C13.6078886,4.74779114 13.9195128,5.08005031 14.3039443,5.08005031 Z M2.78422274,14.5471185 L2.08816705,14.5471185 C1.84416473,14.5471185 1.6099768,14.5923895 1.39211137,14.6747678 L1.39211137,2.22747975 C1.39211137,1.81825994 1.70436195,1.48533283 2.08816705,1.48533283 L2.78422274,1.48533283 L2.78422274,14.5471185 Z M11.1716937,3.41681314 C11.5561253,3.41681314 11.8677494,3.74907232 11.8677494,4.15896006 C11.8677494,4.5688478 11.5561253,4.90110697 11.1716937,4.90110697 L6.612529,4.90110697 C6.22809745,4.90110697 5.91647332,4.5688478 5.91647332,4.15896006 C5.91647332,3.74907232 6.22809745,3.41681314 6.612529,3.41681314 L11.1716937,3.41681314 Z" id="Shape" fill="#888888" fill-rule="nonzero"></path>
                <path d="M17.3885714,15.8576111 C17.8975276,16.657487 18,17.4017222 18,18.2777778 C18,18.6764444 17.6807143,19 17.2857143,19 C16.8907143,19 16.5714286,18.6764444 16.5714286,18.2777778 C16.5714286,16.2866111 14.9692857,14.6666667 13,14.6666667 C11.0307143,14.6666667 9.42857143,16.2866111 9.42857143,18.2777778 C9.42857143,18.6764444 9.10928571,19 8.71428571,19 C8.31928571,19 8,18.6764444 8,18.2777778 C8,15.49 10.2435714,13.2222222 13,13.2222222 C14.3764286,13.2222222 15.6235714,13.7877222 16.5285714,14.6998889 C17.1410174,15.4152348 17.2461423,15.6183395 17.3885714,15.8576111 Z M14.4285714,8.88888889 C14.4285714,9.6855 13.7878571,10.3333333 13,10.3333333 C12.2121429,10.3333333 11.5714286,9.6855 11.5714286,8.88888889 C11.5714286,8.09227778 12.2121429,7.44444444 13,7.44444444 C13.7878571,7.44444444 14.4285714,8.09227778 14.4285714,8.88888889 Z M15.8571429,8.88888889 C15.8571429,7.29566667 14.5757143,6 13,6 C11.4242857,6 10.1428571,7.29566667 10.1428571,8.88888889 C10.1428571,10.4821111 11.4242857,11.7777778 13,11.7777778 C14.5757143,11.7777778 15.8571429,10.4821111 15.8571429,8.88888889 Z" id="🎨-Icon-Сolor" fill="#924F21" fill-rule="nonzero"></path>
            </g>
        </g>
    </g>
</svg>