<?xml version="1.0" encoding="UTF-8"?>
<svg width="26px" height="26px" viewBox="0 0 26 26" version="1.1" xmlns="http://www.w3.org/2000/svg" xmlns:xlink="http://www.w3.org/1999/xlink">
    <title>icon/tab/menual_green</title>
    <g id="icon/tab/menual_green" stroke="none" stroke-width="1" fill="none" fill-rule="evenodd">
        <g id="book-(1)" transform="translate(5.000000, 3.000000)" fill="#2E5958" fill-rule="nonzero">
            <path d="M14.3039443,10.094237 C14.6883759,10.094237 15,9.76197786 15,9.35209012 L15,0.74318592 C15,0.333298179 14.6883759,0.00103900568 14.3039443,0.00103900568 L3.49980278,0.00103900568 C3.49325986,0.000853468951 3.48685615,0 3.48027842,0 C3.4737007,0 3.46729698,0.000853468951 3.46075406,0.00103900568 L2.08816705,0.00103900568 C0.93675174,0.00103900568 0,0.999820322 0,2.22747975 L0,16.7735593 C0,18.0012187 0.93675174,19 2.08816705,19 L14.3039443,19 C14.6883759,19 15,18.6677408 15,18.2578531 C15,17.8479653 14.6883759,17.5157062 14.3039443,17.5157062 L2.08816705,17.5157062 C1.70436195,17.5157062 1.39211137,17.1827791 1.39211137,16.7735593 C1.39211137,16.3643395 1.70436195,16.0314123 2.08816705,16.0314123 L14.3039443,16.0314123 C14.6883759,16.0314123 15,15.6991532 15,15.2892654 L15,13.0628247 C15,12.6529369 14.6883759,12.3206778 14.3039443,12.3206778 C13.9195128,12.3206778 13.6078886,12.6529369 13.6078886,13.0628247 L13.6078886,14.5471185 L4.17633411,14.5471185 L4.17633411,1.48533283 L13.6078886,1.48533283 L13.6078886,9.35209012 C13.6078886,9.76197786 13.9195128,10.094237 14.3039443,10.094237 Z M2.78422274,14.5471185 L2.08816705,14.5471185 C1.84416473,14.5471185 1.6099768,14.5923895 1.39211137,14.6747678 L1.39211137,2.22747975 C1.39211137,1.81825994 1.70436195,1.48533283 2.08816705,1.48533283 L2.78422274,1.48533283 L2.78422274,14.5471185 Z M11.1716937,4.41681314 C11.5561253,4.41681314 11.8677494,4.74907232 11.8677494,5.15896006 C11.8677494,5.5688478 11.5561253,5.90110697 11.1716937,5.90110697 L6.612529,5.90110697 C6.22809745,5.90110697 5.91647332,5.5688478 5.91647332,5.15896006 C5.91647332,4.74907232 6.22809745,4.41681314 6.612529,4.41681314 L11.1716937,4.41681314 Z" id="Shape"></path>
        </g>
    </g>
</svg>